<svg xmlns="http://www.w3.org/2000/svg" width="1200" height="630" viewBox="0 0 1200 630">
  <defs>
    <linearGradient id="bg-oc" x1="0" y1="0" x2="1" y2="1">
      <stop offset="0" stop-color="#F5F3FF"/>
      <stop offset="1" stop-color="#FAFAFF"/>
    </linearGradient>
  </defs>
  <rect width="1200" height="630" fill="url(#bg-oc)"/>
  <circle cx="1100" cy="80" r="150" fill="#EDE9FE" opacity="0.5"/>
  <circle cx="80" cy="580" r="170" fill="#F0F4FF" opacity="0.4"/>
  <text x="80" y="80" font-size="36" fill="#0F172A" font-family="system-ui, -apple-system, sans-serif" font-weight="800">公开课中心</text>
  <text x="80" y="120" font-size="20" fill="#475569" font-family="system-ui, -apple-system, sans-serif">文章 · 资料 · 公开课，打造运营系统知识体系</text>
  <!-- 4 course cards in a row -->
  <rect x="40" y="180" width="260" height="280" rx="20" fill="#FFFFFF" stroke="#E2E8F0"/>
  <rect x="40" y="180" width="260" height="100" rx="20" fill="#2563EB"/>
  <rect x="40" y="244" width="260" height="36" fill="#2563EB"/>
  <text x="170" y="230" text-anchor="middle" font-size="20" fill="#FFFFFF" font-family="system-ui, -apple-system, sans-serif" font-weight="700">关键词到 Listing</text>
  <text x="170" y="270" text-anchor="middle" font-size="14" fill="#BFDBFE" font-family="system-ui, -apple-system, sans-serif">第 1 课</text>
  <text x="170" y="320" text-anchor="middle" font-size="14" fill="#475569" font-family="system-ui, -apple-system, sans-serif">关键词研究 → 分类</text>
  <text x="170" y="350" text-anchor="middle" font-size="14" fill="#475569" font-family="system-ui, -apple-system, sans-serif">→ Listing 布局</text>
  <rect x="60" y="390" width="80" height="28" rx="14" fill="#EFF6FF" stroke="#2563EB"/>
  <text x="100" y="409" text-anchor="middle" font-size="12" fill="#2563EB" font-family="system-ui, -apple-system, sans-serif">视频</text>
  <rect x="150" y="390" width="80" height="28" rx="14" fill="#EFF6FF" stroke="#2563EB"/>
  <text x="190" y="409" text-anchor="middle" font-size="12" fill="#2563EB" font-family="system-ui, -apple-system, sans-serif">资料</text>
  <rect x="330" y="180" width="260" height="280" rx="20" fill="#FFFFFF" stroke="#E2E8F0"/>
  <rect x="330" y="180" width="260" height="100" rx="20" fill="#059669"/>
  <rect x="330" y="244" width="260" height="36" fill="#059669"/>
  <text x="460" y="230" text-anchor="middle" font-size="20" fill="#FFFFFF" font-family="system-ui, -apple-system, sans-serif" font-weight="700">PPC 第一周</text>
  <text x="460" y="270" text-anchor="middle" font-size="14" fill="#A7F3D0" font-family="system-ui, -apple-system, sans-serif">第 2 课</text>
  <text x="460" y="320" text-anchor="middle" font-size="14" fill="#475569" font-family="system-ui, -apple-system, sans-serif">广告结构搭建</text>
  <text x="460" y="350" text-anchor="middle" font-size="14" fill="#475569" font-family="system-ui, -apple-system, sans-serif">数据复盘方法</text>
  <rect x="350" y="390" width="80" height="28" rx="14" fill="#EFF6FF" stroke="#2563EB"/>
  <text x="390" y="409" text-anchor="middle" font-size="12" fill="#2563EB" font-family="system-ui, -apple-system, sans-serif">视频</text>
  <rect x="440" y="390" width="80" height="28" rx="14" fill="#EFF6FF" stroke="#2563EB"/>
  <text x="480" y="409" text-anchor="middle" font-size="12" fill="#2563EB" font-family="system-ui, -apple-system, sans-serif">资料</text>
  <rect x="620" y="180" width="260" height="280" rx="20" fill="#FFFFFF" stroke="#E2E8F0"/>
  <rect x="620" y="180" width="260" height="100" rx="20" fill="#D97706"/>
  <rect x="620" y="244" width="260" height="36" fill="#D97706"/>
  <text x="750" y="230" text-anchor="middle" font-size="20" fill="#FFFFFF" font-family="system-ui, -apple-system, sans-serif" font-weight="700">Review 到选品</text>
  <text x="750" y="270" text-anchor="middle" font-size="14" fill="#FED7AA" font-family="system-ui, -apple-system, sans-serif">第 3 课</text>
  <text x="750" y="320" text-anchor="middle" font-size="14" fill="#475569" font-family="system-ui, -apple-system, sans-serif">Review 数据分析</text>
  <text x="750" y="350" text-anchor="middle" font-size="14" fill="#475569" font-family="system-ui, -apple-system, sans-serif">选品验证方法</text>
  <rect x="640" y="390" width="80" height="28" rx="14" fill="#EFF6FF" stroke="#2563EB"/>
  <text x="680" y="409" text-anchor="middle" font-size="12" fill="#2563EB" font-family="system-ui, -apple-system, sans-serif">视频</text>
  <rect x="730" y="390" width="80" height="28" rx="14" fill="#EFF6FF" stroke="#2563EB"/>
  <text x="770" y="409" text-anchor="middle" font-size="12" fill="#2563EB" font-family="system-ui, -apple-system, sans-serif">资料</text>
  <rect x="910" y="180" width="260" height="280" rx="20" fill="#FFFFFF" stroke="#E2E8F0"/>
  <rect x="910" y="180" width="260" height="100" rx="20" fill="#0891B2"/>
  <rect x="910" y="244" width="260" height="36" fill="#0891B2"/>
  <text x="1040" y="230" text-anchor="middle" font-size="20" fill="#FFFFFF" font-family="system-ui, -apple-system, sans-serif" font-weight="700">AI 工具实操</text>
  <text x="1040" y="270" text-anchor="middle" font-size="14" fill="#A5F3FC" font-family="system-ui, -apple-system, sans-serif">第 4 课</text>
  <text x="1040" y="320" text-anchor="middle" font-size="14" fill="#475569" font-family="system-ui, -apple-system, sans-serif">常用 AI 工具对比</text>
  <text x="1040" y="350" text-anchor="middle" font-size="14" fill="#475569" font-family="system-ui, -apple-system, sans-serif">实操演示</text>
  <rect x="930" y="390" width="80" height="28" rx="14" fill="#EFF6FF" stroke="#2563EB"/>
  <text x="970" y="409" text-anchor="middle" font-size="12" fill="#2563EB" font-family="system-ui, -apple-system, sans-serif">视频</text>
  <rect x="1020" y="390" width="80" height="28" rx="14" fill="#EFF6FF" stroke="#2563EB"/>
  <text x="1060" y="409" text-anchor="middle" font-size="12" fill="#2563EB" font-family="system-ui, -apple-system, sans-serif">资料</text>
  <!-- bottom path -->
  <path d="M300 310 L330 310" stroke="#94A3B8" stroke-width="2" fill="none"/>
  <path d="M590 310 L620 310" stroke="#94A3B8" stroke-width="2" fill="none"/>
  <path d="M880 310 L910 310" stroke="#94A3B8" stroke-width="2" fill="none"/>
  <!-- bottom note -->
  <rect x="340" y="510" width="520" height="56" rx="20" fill="#0F172A"/>
  <text x="600" y="545" text-anchor="middle" font-size="20" fill="#FFFFFF" font-family="system-ui, -apple-system, sans-serif" font-weight="700">系统学习 → 下载资料 → 动手操作</text>
</svg>
