<svg xmlns="http://www.w3.org/2000/svg" width="1200" height="675" viewBox="0 0 1200 675">
  <rect width="1200" height="675" rx="36" fill="#F7FAFF"/>
  <circle cx="1010" cy="120" r="220" fill="#DBEAFE" opacity="0.7"/>
  <circle cx="140" cy="590" r="260" fill="#EFF6FF" opacity="0.9"/>
  <text x="72" y="82" font-size="42" fill="#06152F" font-family="Microsoft YaHei, Arial" font-weight="900">AI 与卖家的分工</text>
  <text x="72" y="124" font-size="22" fill="#64748B" font-family="Microsoft YaHei, Arial">AI 提效，卖家判断；不要把辅助工具当成方向盘</text>
  
    <rect x="80" y="180" width="470" height="390" rx="30" fill="#FFFFFF" stroke="#D9E7FF"/>
    <rect x="650" y="180" width="470" height="390" rx="30" fill="#FFFFFF" stroke="#D9E7FF"/>
    <text x="315" y="246" text-anchor="middle" font-size="36" fill="#1368FF" font-family="Microsoft YaHei, Arial" font-weight="900">AI 负责</text>
    <text x="885" y="246" text-anchor="middle" font-size="36" fill="#0F172A" font-family="Microsoft YaHei, Arial" font-weight="900">卖家负责</text>
    <g>
      <circle cx="170" cy="307" r="8" fill="#1368FF"/>
      <text x="194" y="315" font-size="25" fill="#334155" font-family="Microsoft YaHei, Arial" font-weight="800">整理信息</text>
    </g>
<g>
      <circle cx="170" cy="355" r="8" fill="#1368FF"/>
      <text x="194" y="363" font-size="25" fill="#334155" font-family="Microsoft YaHei, Arial" font-weight="800">生成初稿</text>
    </g>
<g>
      <circle cx="170" cy="403" r="8" fill="#1368FF"/>
      <text x="194" y="411" font-size="25" fill="#334155" font-family="Microsoft YaHei, Arial" font-weight="800">对比差异</text>
    </g>
<g>
      <circle cx="170" cy="451" r="8" fill="#1368FF"/>
      <text x="194" y="459" font-size="25" fill="#334155" font-family="Microsoft YaHei, Arial" font-weight="800">提炼问题</text>
    </g>
<g>
      <circle cx="170" cy="499" r="8" fill="#1368FF"/>
      <text x="194" y="507" font-size="25" fill="#334155" font-family="Microsoft YaHei, Arial" font-weight="800">输出清单</text>
    </g>
    <g>
      <circle cx="740" cy="307" r="8" fill="#0F172A"/>
      <text x="764" y="315" font-size="25" fill="#334155" font-family="Microsoft YaHei, Arial" font-weight="800">产品判断</text>
    </g>
<g>
      <circle cx="740" cy="355" r="8" fill="#0F172A"/>
      <text x="764" y="363" font-size="25" fill="#334155" font-family="Microsoft YaHei, Arial" font-weight="800">市场理解</text>
    </g>
<g>
      <circle cx="740" cy="403" r="8" fill="#0F172A"/>
      <text x="764" y="411" font-size="25" fill="#334155" font-family="Microsoft YaHei, Arial" font-weight="800">合规判断</text>
    </g>
<g>
      <circle cx="740" cy="451" r="8" fill="#0F172A"/>
      <text x="764" y="459" font-size="25" fill="#334155" font-family="Microsoft YaHei, Arial" font-weight="800">预算决策</text>
    </g>
<g>
      <circle cx="740" cy="499" r="8" fill="#0F172A"/>
      <text x="764" y="507" font-size="25" fill="#334155" font-family="Microsoft YaHei, Arial" font-weight="800">最终执行</text>
    </g>
    <path d="M565 370 H635" stroke="#60A5FA" stroke-width="7" stroke-linecap="round"/>
    <path d="M635 370 L615 354 M635 370 L615 386" stroke="#60A5FA" stroke-width="7" stroke-linecap="round"/>
  
</svg>