<svg xmlns="http://www.w3.org/2000/svg" width="1200" height="675" viewBox="0 0 1200 675">
  <defs>
    <linearGradient id="bg" x1="0" y1="0" x2="1" y2="1">
      <stop offset="0" stop-color="#020817"/>
      <stop offset="0.55" stop-color="#0B2B64"/>
      <stop offset="1" stop-color="#06152F"/>
    </linearGradient>
    <radialGradient id="glow" cx="62%" cy="43%" r="58%">
      <stop offset="0" stop-color="#38BDF8" stop-opacity="0.38"/>
      <stop offset="1" stop-color="#38BDF8" stop-opacity="0"/>
    </radialGradient>
  </defs>
  <rect width="1200" height="675" rx="36" fill="url(#bg)"/>
  <circle cx="760" cy="280" r="300" fill="url(#glow)"/>
  <g opacity="0.20" stroke="#93C5FD">
    <path d="M90 500 C310 330 480 510 650 310 C820 110 1000 210 1110 90" fill="none" stroke-width="3"/>
    <path d="M90 390 H1110M90 270 H1110M90 150 H1110" stroke-width="1"/>
    <path d="M260 90 V580M480 90 V580M700 90 V580M920 90 V580" stroke-width="1"/>
  </g>
  <text x="72" y="82" font-size="42" fill="#FFFFFF" font-family="Microsoft YaHei, Arial" font-weight="900">亚马逊 AI 运营五大场景</text>
  <text x="72" y="124" font-size="22" fill="#BFDBFE" font-family="Microsoft YaHei, Arial">把 AI 接入选品、Listing、广告、Review 和日常 SOP</text>
  <g transform="translate(70 220)">
      <rect width="190" height="230" rx="26" fill="rgba(255,255,255,0.10)" stroke="rgba(147,197,253,0.34)"/>
      <circle cx="95" cy="70" r="30" fill="#1368FF" opacity="0.86"/>
      <text x="95" y="82" text-anchor="middle" font-size="30" fill="#FFFFFF" font-family="Microsoft YaHei, Arial" font-weight="900">选品</text>
      <text x="95" y="142" text-anchor="middle" font-size="18" fill="#BFDBFE" font-family="Microsoft YaHei, Arial" font-weight="500">市场容量与风险筛</text>
<text x="95" y="168" text-anchor="middle" font-size="18" fill="#BFDBFE" font-family="Microsoft YaHei, Arial" font-weight="500">查</text>
    </g>
<g transform="translate(290 220)">
      <rect width="190" height="230" rx="26" fill="rgba(255,255,255,0.10)" stroke="rgba(147,197,253,0.34)"/>
      <circle cx="95" cy="70" r="30" fill="#1368FF" opacity="0.86"/>
      <text x="95" y="82" text-anchor="middle" font-size="30" fill="#FFFFFF" font-family="Microsoft YaHei, Arial" font-weight="900">Listing</text>
      <text x="95" y="142" text-anchor="middle" font-size="18" fill="#BFDBFE" font-family="Microsoft YaHei, Arial" font-weight="500">关键词与转化表达</text>
    </g>
<g transform="translate(510 220)">
      <rect width="190" height="230" rx="26" fill="rgba(255,255,255,0.10)" stroke="rgba(147,197,253,0.34)"/>
      <circle cx="95" cy="70" r="30" fill="#1368FF" opacity="0.86"/>
      <text x="95" y="82" text-anchor="middle" font-size="30" fill="#FFFFFF" font-family="Microsoft YaHei, Arial" font-weight="900">广告 PPC</text>
      <text x="95" y="142" text-anchor="middle" font-size="18" fill="#BFDBFE" font-family="Microsoft YaHei, Arial" font-weight="500">搜索词与预算复盘</text>
    </g>
<g transform="translate(730 220)">
      <rect width="190" height="230" rx="26" fill="rgba(255,255,255,0.10)" stroke="rgba(147,197,253,0.34)"/>
      <circle cx="95" cy="70" r="30" fill="#1368FF" opacity="0.86"/>
      <text x="95" y="82" text-anchor="middle" font-size="30" fill="#FFFFFF" font-family="Microsoft YaHei, Arial" font-weight="900">Review</text>
      <text x="95" y="142" text-anchor="middle" font-size="18" fill="#BFDBFE" font-family="Microsoft YaHei, Arial" font-weight="500">痛点与用户语言</text>
    </g>
<g transform="translate(950 220)">
      <rect width="190" height="230" rx="26" fill="rgba(255,255,255,0.10)" stroke="rgba(147,197,253,0.34)"/>
      <circle cx="95" cy="70" r="30" fill="#1368FF" opacity="0.86"/>
      <text x="95" y="82" text-anchor="middle" font-size="30" fill="#FFFFFF" font-family="Microsoft YaHei, Arial" font-weight="900">日常 SOP</text>
      <text x="95" y="142" text-anchor="middle" font-size="18" fill="#BFDBFE" font-family="Microsoft YaHei, Arial" font-weight="500">待办、复盘、执行</text>
<text x="95" y="168" text-anchor="middle" font-size="18" fill="#BFDBFE" font-family="Microsoft YaHei, Arial" font-weight="500">清单</text>
    </g>
<path d="M262 335 H296" stroke="#60A5FA" stroke-width="5" stroke-linecap="round"/>
      <path d="M296 335 L284 326 M296 335 L284 344" stroke="#60A5FA" stroke-width="5" stroke-linecap="round"/>
<path d="M482 335 H516" stroke="#60A5FA" stroke-width="5" stroke-linecap="round"/>
      <path d="M516 335 L504 326 M516 335 L504 344" stroke="#60A5FA" stroke-width="5" stroke-linecap="round"/>
<path d="M702 335 H736" stroke="#60A5FA" stroke-width="5" stroke-linecap="round"/>
      <path d="M736 335 L724 326 M736 335 L724 344" stroke="#60A5FA" stroke-width="5" stroke-linecap="round"/>
<path d="M922 335 H956" stroke="#60A5FA" stroke-width="5" stroke-linecap="round"/>
      <path d="M956 335 L944 326 M956 335 L944 344" stroke="#60A5FA" stroke-width="5" stroke-linecap="round"/>
</svg>