<svg xmlns="http://www.w3.org/2000/svg" width="1200" height="675" viewBox="0 0 1200 675">
  <defs>
    <linearGradient id="bg" x1="0" y1="0" x2="1" y2="1">
      <stop offset="0" stop-color="#020817"/>
      <stop offset="0.55" stop-color="#0B2B64"/>
      <stop offset="1" stop-color="#06152F"/>
    </linearGradient>
    <radialGradient id="glow" cx="62%" cy="43%" r="58%">
      <stop offset="0" stop-color="#38BDF8" stop-opacity="0.38"/>
      <stop offset="1" stop-color="#38BDF8" stop-opacity="0"/>
    </radialGradient>
  </defs>
  <rect width="1200" height="675" rx="36" fill="url(#bg)"/>
  <circle cx="760" cy="280" r="300" fill="url(#glow)"/>
  <g opacity="0.20" stroke="#93C5FD">
    <path d="M90 500 C310 330 480 510 650 310 C820 110 1000 210 1110 90" fill="none" stroke-width="3"/>
    <path d="M90 390 H1110M90 270 H1110M90 150 H1110" stroke-width="1"/>
    <path d="M260 90 V580M480 90 V580M700 90 V580M920 90 V580" stroke-width="1"/>
  </g>
  <text x="72" y="82" font-size="42" fill="#FFFFFF" font-family="Microsoft YaHei, Arial" font-weight="900">阿岩卖家 AI 落地 SOP</text>
  <text x="72" y="124" font-size="22" fill="#BFDBFE" font-family="Microsoft YaHei, Arial">先从固定动作开始，不追工具，先建流程</text>
  <g>
      <rect x="90" y="180" width="1020" height="58" rx="18" fill="rgba(255,255,255,0.10)" stroke="rgba(147,197,253,0.34)"/>
      <rect x="116" y="192" width="96" height="34" rx="17" fill="#1368FF"/>
      <text x="164" y="216" text-anchor="middle" font-size="20" fill="#FFFFFF" font-family="Microsoft YaHei, Arial" font-weight="900">每天</text>
      <text x="246" y="218" font-size="26" fill="#FFFFFF" font-family="Microsoft YaHei, Arial" font-weight="900">AI 整理运营待办</text>
    </g>
<g>
      <rect x="90" y="258" width="1020" height="58" rx="18" fill="rgba(255,255,255,0.10)" stroke="rgba(147,197,253,0.34)"/>
      <rect x="116" y="270" width="96" height="34" rx="17" fill="#1368FF"/>
      <text x="164" y="294" text-anchor="middle" font-size="20" fill="#FFFFFF" font-family="Microsoft YaHei, Arial" font-weight="900">每周</text>
      <text x="246" y="296" font-size="26" fill="#FFFFFF" font-family="Microsoft YaHei, Arial" font-weight="900">广告报告复盘</text>
    </g>
<g>
      <rect x="90" y="336" width="1020" height="58" rx="18" fill="rgba(255,255,255,0.10)" stroke="rgba(147,197,253,0.34)"/>
      <rect x="116" y="348" width="96" height="34" rx="17" fill="#1368FF"/>
      <text x="164" y="372" text-anchor="middle" font-size="20" fill="#FFFFFF" font-family="Microsoft YaHei, Arial" font-weight="900">每周</text>
      <text x="246" y="374" font-size="26" fill="#FFFFFF" font-family="Microsoft YaHei, Arial" font-weight="900">Review 痛点分析</text>
    </g>
<g>
      <rect x="90" y="414" width="1020" height="58" rx="18" fill="rgba(255,255,255,0.10)" stroke="rgba(147,197,253,0.34)"/>
      <rect x="116" y="426" width="96" height="34" rx="17" fill="#1368FF"/>
      <text x="164" y="450" text-anchor="middle" font-size="20" fill="#FFFFFF" font-family="Microsoft YaHei, Arial" font-weight="900">上新前</text>
      <text x="246" y="452" font-size="26" fill="#FFFFFF" font-family="Microsoft YaHei, Arial" font-weight="900">Listing 检查</text>
    </g>
<g>
      <rect x="90" y="492" width="1020" height="58" rx="18" fill="rgba(255,255,255,0.10)" stroke="rgba(147,197,253,0.34)"/>
      <rect x="116" y="504" width="96" height="34" rx="17" fill="#1368FF"/>
      <text x="164" y="528" text-anchor="middle" font-size="20" fill="#FFFFFF" font-family="Microsoft YaHei, Arial" font-weight="900">每月</text>
      <text x="246" y="530" font-size="26" fill="#FFFFFF" font-family="Microsoft YaHei, Arial" font-weight="900">产品线复盘</text>
    </g>
</svg>