<svg xmlns="http://www.w3.org/2000/svg" width="1200" height="630" viewBox="0 0 1200 630">
  <defs>
    <linearGradient id="bg" x1="0" y1="0" x2="1" y2="1">
      <stop offset="0" stop-color="#020817"/>
      <stop offset="0.55" stop-color="#0B2B64"/>
      <stop offset="1" stop-color="#06152F"/>
    </linearGradient>
    <radialGradient id="glow" cx="70%" cy="35%" r="60%">
      <stop offset="0" stop-color="#38BDF8" stop-opacity="0.45"/>
      <stop offset="1" stop-color="#38BDF8" stop-opacity="0"/>
    </radialGradient>
  </defs>
  <rect width="1200" height="630" rx="0" fill="url(#bg)"/>
  <circle cx="820" cy="260" r="310" fill="url(#glow)"/>
  <g opacity="0.22" stroke="#93C5FD">
    <path d="M100 480 C300 300 470 480 650 280 C820 100 1000 210 1110 90" fill="none" stroke-width="4"/>
    <path d="M90 390 H1110M90 270 H1110M90 150 H1110" stroke-width="1"/>
    <path d="M260 80 V550M500 80 V550M740 80 V550M980 80 V550" stroke-width="1"/>
  </g>
  <rect x="82" y="78" width="82" height="82" rx="24" fill="#1368FF"/>
  <text x="123" y="132" text-anchor="middle" font-size="42" fill="#FFFFFF" font-family="Microsoft YaHei, Arial" font-weight="900">岩</text>
  <text x="90" y="235" font-size="62" fill="#FFFFFF" font-family="Microsoft YaHei, Arial" font-weight="900">阿岩跨境笔记</text>
  <text x="90" y="310" font-size="44" fill="#60A5FA" font-family="Microsoft YaHei, Arial" font-weight="900">亚马逊运营 × AI 实战 SOP</text>
  <text x="90" y="382" font-size="27" fill="#BFDBFE" font-family="Microsoft YaHei, Arial">选品、Listing、广告 PPC、Review 分析与运营提效</text>
  <text x="90" y="500" font-size="24" fill="#DBEAFE" font-family="Arial">amz.hao1234.top</text>
</svg>