<svg xmlns="http://www.w3.org/2000/svg" width="1200" height="630" viewBox="0 0 1200 630">
  <defs>
    <linearGradient id="bg-ppcwk" x1="0" y1="0" x2="1" y2="1">
      <stop offset="0" stop-color="#FFF7ED"/>
      <stop offset="1" stop-color="#FFFBFF"/>
    </linearGradient>
  </defs>
  <rect width="1200" height="630" fill="url(#bg-ppcwk)"/>
  <circle cx="1100" cy="80" r="150" fill="#FFEDD5" opacity="0.4"/>
  <circle cx="80" cy="580" r="170" fill="#FFF7ED" opacity="0.3"/>
  <text x="80" y="80" font-size="36" fill="#0F172A" font-family="system-ui, -apple-system, sans-serif" font-weight="800">PPC 周复盘表</text>
  <text x="80" y="120" font-size="20" fill="#475569" font-family="system-ui, -apple-system, sans-serif">广告数据追踪 · 否词优化 · 预算调整</text>
  <!-- Table header -->
  <rect x="40" y="160" width="150" height="44" rx="8" fill="#D97706"/>
  <text x="115" y="188" text-anchor="middle" font-size="15" fill="#FFFFFF" font-family="system-ui, -apple-system, sans-serif" font-weight="700">广告活动</text>
  <rect x="190" y="160" width="100" height="44" rx="8" fill="#D97706"/>
  <text x="240" y="188" text-anchor="middle" font-size="15" fill="#FFFFFF" font-family="system-ui, -apple-system, sans-serif" font-weight="700">花费</text>
  <rect x="290" y="160" width="100" height="44" rx="8" fill="#D97706"/>
  <text x="340" y="188" text-anchor="middle" font-size="15" fill="#FFFFFF" font-family="system-ui, -apple-system, sans-serif" font-weight="700">点击</text>
  <rect x="390" y="160" width="100" height="44" rx="8" fill="#D97706"/>
  <text x="440" y="188" text-anchor="middle" font-size="15" fill="#FFFFFF" font-family="system-ui, -apple-system, sans-serif" font-weight="700">转化</text>
  <rect x="490" y="160" width="100" height="44" rx="8" fill="#D97706"/>
  <text x="540" y="188" text-anchor="middle" font-size="15" fill="#FFFFFF" font-family="system-ui, -apple-system, sans-serif" font-weight="700">ACOS</text>
  <rect x="590" y="160" width="150" height="44" rx="8" fill="#D97706"/>
  <text x="665" y="188" text-anchor="middle" font-size="15" fill="#FFFFFF" font-family="system-ui, -apple-system, sans-serif" font-weight="700">新增否定词</text>
  <rect x="740" y="160" width="190" height="44" rx="8" fill="#D97706"/>
  <text x="835" y="188" text-anchor="middle" font-size="15" fill="#FFFFFF" font-family="system-ui, -apple-system, sans-serif" font-weight="700">本周动作</text>
  <rect x="930" y="160" width="230" height="44" rx="8" fill="#D97706"/>
  <text x="1045" y="188" text-anchor="middle" font-size="15" fill="#FFFFFF" font-family="system-ui, -apple-system, sans-serif" font-weight="700">下周计划</text>
  <!-- Row 1 -->
  <rect x="40" y="208" width="150" height="44" fill="#FFFFFF" stroke="#E2E8F0"/>
  <text x="115" y="237" text-anchor="middle" font-size="14" fill="#0F172A" font-family="system-ui, -apple-system, sans-serif">自动广告</text>
  <rect x="190" y="208" width="100" height="44" fill="#FFFFFF" stroke="#E2E8F0"/>
  <text x="240" y="237" text-anchor="middle" font-size="15" fill="#475569" font-family="system-ui, -apple-system, sans-serif">¥1,280</text>
  <rect x="290" y="208" width="100" height="44" fill="#FFFFFF" stroke="#E2E8F0"/>
  <text x="340" y="237" text-anchor="middle" font-size="15" fill="#475569" font-family="system-ui, -apple-system, sans-serif">238</text>
  <rect x="390" y="208" width="100" height="44" fill="#FFFFFF" stroke="#E2E8F0"/>
  <text x="440" y="237" text-anchor="middle" font-size="15" fill="#475569" font-family="system-ui, -apple-system, sans-serif">12</text>
  <rect x="490" y="208" width="100" height="44" fill="#FFFFFF" stroke="#E2E8F0"/>
  <rect x="500" y="218" width="60" height="24" rx="12" fill="#FEE2E2"/>
  <text x="530" y="235" text-anchor="middle" font-size="13" fill="#DC2626" font-family="system-ui, -apple-system, sans-serif">28.4%</text>
  <rect x="590" y="208" width="150" height="44" fill="#FFFFFF" stroke="#E2E8F0"/>
  <text x="665" y="237" text-anchor="middle" font-size="14" fill="#475569" font-family="system-ui, -apple-system, sans-serif">+6 个否定词</text>
  <rect x="740" y="208" width="190" height="44" fill="#FFFFFF" stroke="#E2E8F0"/>
  <text x="835" y="237" text-anchor="middle" font-size="14" fill="#475569" font-family="system-ui, -apple-system, sans-serif">否掉不相关搜索词</text>
  <rect x="930" y="208" width="230" height="44" fill="#FFFFFF" stroke="#E2E8F0"/>
  <text x="1045" y="237" text-anchor="middle" font-size="14" fill="#475569" font-family="system-ui, -apple-system, sans-serif">降低出价 10%</text>
  <!-- Row 2 -->
  <rect x="40" y="252" width="150" height="44" fill="#FAFBFF" stroke="#E2E8F0"/>
  <text x="115" y="281" text-anchor="middle" font-size="14" fill="#0F172A" font-family="system-ui, -apple-system, sans-serif">精准广告</text>
  <rect x="190" y="252" width="100" height="44" fill="#FAFBFF" stroke="#E2E8F0"/>
  <text x="240" y="281" text-anchor="middle" font-size="15" fill="#475569" font-family="system-ui, -apple-system, sans-serif">¥2,340</text>
  <rect x="290" y="252" width="100" height="44" fill="#FAFBFF" stroke="#E2E8F0"/>
  <text x="340" y="281" text-anchor="middle" font-size="15" fill="#475569" font-family="system-ui, -apple-system, sans-serif">415</text>
  <rect x="390" y="252" width="100" height="44" fill="#FAFBFF" stroke="#E2E8F0"/>
  <text x="440" y="281" text-anchor="middle" font-size="15" fill="#475569" font-family="system-ui, -apple-system, sans-serif">28</text>
  <rect x="490" y="252" width="100" height="44" fill="#FAFBFF" stroke="#E2E8F0"/>
  <rect x="500" y="262" width="60" height="24" rx="12" fill="#D1FAE5"/>
  <text x="530" y="279" text-anchor="middle" font-size="13" fill="#059669" font-family="system-ui, -apple-system, sans-serif">15.2%</text>
  <rect x="590" y="252" width="150" height="44" fill="#FAFBFF" stroke="#E2E8F0"/>
  <text x="665" y="281" text-anchor="middle" font-size="14" fill="#475569" font-family="system-ui, -apple-system, sans-serif">+2 个否定词</text>
  <rect x="740" y="252" width="190" height="44" fill="#FAFBFF" stroke="#E2E8F0"/>
  <text x="835" y="281" text-anchor="middle" font-size="14" fill="#475569" font-family="system-ui, -apple-system, sans-serif">添加长尾词</text>
  <rect x="930" y="252" width="230" height="44" fill="#FAFBFF" stroke="#E2E8F0"/>
  <text x="1045" y="281" text-anchor="middle" font-size="14" fill="#475569" font-family="system-ui, -apple-system, sans-serif">增加预算 20%</text>
  <!-- Row 3 -->
  <rect x="40" y="296" width="150" height="44" fill="#FFFFFF" stroke="#E2E8F0"/>
  <text x="115" y="325" text-anchor="middle" font-size="14" fill="#0F172A" font-family="system-ui, -apple-system, sans-serif">广泛广告</text>
  <rect x="190" y="296" width="100" height="44" fill="#FFFFFF" stroke="#E2E8F0"/>
  <text x="240" y="325" text-anchor="middle" font-size="15" fill="#475569" font-family="system-ui, -apple-system, sans-serif">¥890</text>
  <rect x="290" y="296" width="100" height="44" fill="#FFFFFF" stroke="#E2E8F0"/>
  <text x="340" y="325" text-anchor="middle" font-size="15" fill="#475569" font-family="system-ui, -apple-system, sans-serif">156</text>
  <rect x="390" y="296" width="100" height="44" fill="#FFFFFF" stroke="#E2E8F0"/>
  <text x="440" y="325" text-anchor="middle" font-size="15" fill="#475569" font-family="system-ui, -apple-system, sans-serif">5</text>
  <rect x="490" y="296" width="100" height="44" fill="#FFFFFF" stroke="#E2E8F0"/>
  <rect x="500" y="306" width="60" height="24" rx="12" fill="#FEE2E2"/>
  <text x="530" y="323" text-anchor="middle" font-size="13" fill="#DC2626" font-family="system-ui, -apple-system, sans-serif">32.1%</text>
  <rect x="590" y="296" width="150" height="44" fill="#FFFFFF" stroke="#E2E8F0"/>
  <text x="665" y="325" text-anchor="middle" font-size="14" fill="#475569" font-family="system-ui, -apple-system, sans-serif">+8 个否定词</text>
  <rect x="740" y="296" width="190" height="44" fill="#FFFFFF" stroke="#E2E8F0"/>
  <text x="835" y="325" text-anchor="middle" font-size="14" fill="#475569" font-family="system-ui, -apple-system, sans-serif">严格否定低转化词</text>
  <rect x="930" y="296" width="230" height="44" fill="#FFFFFF" stroke="#E2E8F0"/>
  <text x="1045" y="325" text-anchor="middle" font-size="14" fill="#475569" font-family="system-ui, -apple-system, sans-serif">暂停无效广告组</text>
  <!-- Row 4 -->
  <rect x="40" y="340" width="150" height="44" fill="#FAFBFF" stroke="#E2E8F0"/>
  <text x="115" y="369" text-anchor="middle" font-size="14" fill="#0F172A" font-family="system-ui, -apple-system, sans-serif">品牌广告</text>
  <rect x="190" y="340" width="100" height="44" fill="#FAFBFF" stroke="#E2E8F0"/>
  <text x="240" y="369" text-anchor="middle" font-size="15" fill="#475569" font-family="system-ui, -apple-system, sans-serif">¥1,150</text>
  <rect x="290" y="340" width="100" height="44" fill="#FAFBFF" stroke="#E2E8F0"/>
  <text x="340" y="369" text-anchor="middle" font-size="15" fill="#475569" font-family="system-ui, -apple-system, sans-serif">89</text>
  <rect x="390" y="340" width="100" height="44" fill="#FAFBFF" stroke="#E2E8F0"/>
  <text x="440" y="369" text-anchor="middle" font-size="15" fill="#475569" font-family="system-ui, -apple-system, sans-serif">8</text>
  <rect x="490" y="340" width="100" height="44" fill="#FAFBFF" stroke="#E2E8F0"/>
  <rect x="500" y="350" width="60" height="24" rx="12" fill="#D1FAE5"/>
  <text x="530" y="367" text-anchor="middle" font-size="13" fill="#059669" font-family="system-ui, -apple-system, sans-serif">11.8%</text>
  <rect x="590" y="340" width="150" height="44" fill="#FAFBFF" stroke="#E2E8F0"/>
  <text x="665" y="369" text-anchor="middle" font-size="14" fill="#475569" font-family="system-ui, -apple-system, sans-serif">无调整</text>
  <rect x="740" y="340" width="190" height="44" fill="#FAFBFF" stroke="#E2E8F0"/>
  <text x="835" y="369" text-anchor="middle" font-size="14" fill="#475569" font-family="system-ui, -apple-system, sans-serif">维持当前出价</text>
  <rect x="930" y="340" width="230" height="44" fill="#FAFBFF" stroke="#E2E8F0"/>
  <text x="1045" y="369" text-anchor="middle" font-size="14" fill="#475569" font-family="system-ui, -apple-system, sans-serif">测试新关键词</text>
  <!-- Bottom summary -->
  <rect x="40" y="410" width="1120" height="56" rx="16" fill="#0F172A"/>
  <text x="600" y="445" text-anchor="middle" font-size="18" fill="#FFFFFF" font-family="system-ui, -apple-system, sans-serif" font-weight="700">本周总花费：¥5,660 · 总转化：53 · 平均 ACOS：18.7%</text>
  <!-- Tips -->
  <rect x="40" y="490" width="360" height="50" rx="14" fill="#EFF6FF" stroke="#2563EB"/>
  <text x="60" y="515" font-size="14" fill="#1D4ED8" font-family="system-ui, -apple-system, sans-serif" font-weight="700">✓</text>
  <text x="85" y="520" font-size="14" fill="#1D4ED8" font-family="system-ui, -apple-system, sans-serif">低于 20% ACOS 的广告组加预算</text>
  <rect x="420" y="490" width="360" height="50" rx="14" fill="#FEF2F2" stroke="#FECACA"/>
  <text x="440" y="515" font-size="14" fill="#DC2626" font-family="system-ui, -apple-system, sans-serif" font-weight="700">✗</text>
  <text x="465" y="520" font-size="14" fill="#DC2626" font-family="system-ui, -apple-system, sans-serif">高于 30% ACOS 的暂停或优化</text>
  <rect x="800" y="490" width="360" height="50" rx="14" fill="#FFF7ED" stroke="#FED7AA"/>
  <text x="820" y="515" font-size="14" fill="#D97706" font-family="system-ui, -apple-system, sans-serif" font-weight="700">→</text>
  <text x="845" y="520" font-size="14" fill="#D97706" font-family="system-ui, -apple-system, sans-serif">每周固定复盘，持续迭代</text>
</svg>
