<svg xmlns="http://www.w3.org/2000/svg" width="1200" height="630" viewBox="0 0 1200 630">
  <defs>
    <linearGradient id="bg-tl" x1="0" y1="0" x2="1" y2="1">
      <stop offset="0" stop-color="#F8FAFC"/>
      <stop offset="1" stop-color="#F1F5F9"/>
    </linearGradient>
  </defs>
  <rect width="1200" height="630" fill="url(#bg-tl)"/>
  <circle cx="80" cy="80" r="150" fill="#E2E8F0" opacity="0.3"/>
  <circle cx="1120" cy="580" r="160" fill="#E2E8F0" opacity="0.3"/>
  <text x="80" y="80" font-size="36" fill="#0F172A" font-family="system-ui, -apple-system, sans-serif" font-weight="800">工具资料学习路径</text>
  <text x="80" y="120" font-size="20" fill="#475569" font-family="system-ui, -apple-system, sans-serif">表格 · 清单 · SOP，提升运营效率</text>
  <!-- 3 large cards -->
  <rect x="60" y="180" width="330" height="380" rx="24" fill="#FFFFFF" stroke="#E2E8F0"/>
  <rect x="60" y="180" width="330" height="80" rx="24" fill="#0891B2"/>
  <rect x="60" y="224" width="330" height="36" fill="#0891B2"/>
  <text x="225" y="228" text-anchor="middle" font-size="24" fill="#FFFFFF" font-family="system-ui, -apple-system, sans-serif" font-weight="700">运营表格</text>
  <rect x="90" y="290" width="270" height="48" rx="10" fill="#F0FDFA" stroke="#99F6E4"/>
  <text x="225" y="321" text-anchor="middle" font-size="16" fill="#0F766E" font-family="system-ui, -apple-system, sans-serif">PPC 周复盘表</text>
  <rect x="90" y="350" width="270" height="48" rx="10" fill="#F0FDFA" stroke="#99F6E4"/>
  <text x="225" y="381" text-anchor="middle" font-size="16" fill="#0F766E" font-family="system-ui, -apple-system, sans-serif">关键词清洗表</text>
  <rect x="90" y="410" width="270" height="48" rx="10" fill="#F0FDFA" stroke="#99F6E4"/>
  <text x="225" y="441" text-anchor="middle" font-size="16" fill="#0F766E" font-family="system-ui, -apple-system, sans-serif">竞品对比矩阵</text>
  <rect x="90" y="470" width="270" height="48" rx="10" fill="#F0FDFA" stroke="#99F6E4"/>
  <text x="225" y="501" text-anchor="middle" font-size="16" fill="#0F766E" font-family="system-ui, -apple-system, sans-serif">Review 分析表</text>
  <rect x="435" y="180" width="330" height="380" rx="24" fill="#FFFFFF" stroke="#E2E8F0"/>
  <rect x="435" y="180" width="330" height="80" rx="24" fill="#2563EB"/>
  <rect x="435" y="224" width="330" height="36" fill="#2563EB"/>
  <text x="600" y="228" text-anchor="middle" font-size="24" fill="#FFFFFF" font-family="system-ui, -apple-system, sans-serif" font-weight="700">检查清单</text>
  <rect x="465" y="290" width="270" height="48" rx="10" fill="#EFF6FF" stroke="#BFDBFE"/>
  <text x="600" y="321" text-anchor="middle" font-size="16" fill="#1D4ED8" font-family="system-ui, -apple-system, sans-serif">Listing 检查清单</text>
  <rect x="465" y="350" width="270" height="48" rx="10" fill="#EFF6FF" stroke="#BFDBFE"/>
  <text x="600" y="381" text-anchor="middle" font-size="16" fill="#1D4ED8" font-family="system-ui, -apple-system, sans-serif">平台规则检查清单</text>
  <rect x="465" y="410" width="270" height="48" rx="10" fill="#EFF6FF" stroke="#BFDBFE"/>
  <text x="600" y="441" text-anchor="middle" font-size="16" fill="#1D4ED8" font-family="system-ui, -apple-system, sans-serif">新品上线检查清单</text>
  <rect x="465" y="470" width="270" height="48" rx="10" fill="#EFF6FF" stroke="#BFDBFE"/>
  <text x="600" y="501" text-anchor="middle" font-size="16" fill="#1D4ED8" font-family="system-ui, -apple-system, sans-serif">广告结构检查清单</text>
  <rect x="810" y="180" width="330" height="380" rx="24" fill="#FFFFFF" stroke="#E2E8F0"/>
  <rect x="810" y="180" width="330" height="80" rx="24" fill="#D97706"/>
  <rect x="810" y="224" width="330" height="36" fill="#D97706"/>
  <text x="975" y="228" text-anchor="middle" font-size="24" fill="#FFFFFF" font-family="system-ui, -apple-system, sans-serif" font-weight="700">SOP 指南</text>
  <rect x="840" y="290" width="270" height="48" rx="10" fill="#FFF7ED" stroke="#FED7AA"/>
  <text x="975" y="321" text-anchor="middle" font-size="16" fill="#9A3412" font-family="system-ui, -apple-system, sans-serif">AI 运营落地 SOP</text>
  <rect x="840" y="350" width="270" height="48" rx="10" fill="#FFF7ED" stroke="#FED7AA"/>
  <text x="975" y="381" text-anchor="middle" font-size="16" fill="#9A3412" font-family="system-ui, -apple-system, sans-serif">PPC 复盘 SOP</text>
  <rect x="840" y="410" width="270" height="48" rx="10" fill="#FFF7ED" stroke="#FED7AA"/>
  <text x="975" y="441" text-anchor="middle" font-size="16" fill="#9A3412" font-family="system-ui, -apple-system, sans-serif">Review 分析 SOP</text>
  <rect x="840" y="470" width="270" height="48" rx="10" fill="#FFF7ED" stroke="#FED7AA"/>
  <text x="975" y="501" text-anchor="middle" font-size="16" fill="#9A3412" font-family="system-ui, -apple-system, sans-serif">Listing 优化 SOP</text>
</svg>
