<svg xmlns="http://www.w3.org/2000/svg" width="1200" height="630" viewBox="0 0 1200 630">
  <defs>
    <linearGradient id="bg-prb" x1="0" y1="0" x2="1" y2="1">
      <stop offset="0" stop-color="#F8FAFC"/>
      <stop offset="1" stop-color="#FCFCFD"/>
    </linearGradient>
  </defs>
  <rect width="1200" height="630" fill="url(#bg-prb)"/>
  <circle cx="1050" cy="80" r="160" fill="#E2E8F0" opacity="0.4"/>
  <circle cx="120" cy="580" r="180" fill="#F1F5F9" opacity="0.4"/>
  <text x="80" y="80" font-size="36" fill="#0F172A" font-family="system-ui, -apple-system, sans-serif" font-weight="800">新手规则避坑清单</text>
  <text x="80" y="120" font-size="20" fill="#475569" font-family="system-ui, -apple-system, sans-serif">10 个高频违规场景 · Listing 发版前检查</text>
  <!-- 5 checklist items (2 rows) -->
  <rect x="80" y="170" width="320" height="65" rx="12" fill="#FFFFFF" stroke="#CBD5E1" stroke-width="2"/>
  <circle cx="110" cy="202" r="14" fill="#F1F5F9" stroke="#94A3B8"/><text x="110" y="207" text-anchor="middle" font-size="14" fill="#64748B" font-weight="700">1</text>
  <text x="145" y="198" font-size="16" fill="#334155" font-family="system-ui, -apple-system, sans-serif" font-weight="700">Listing 表达违规</text>
  <text x="145" y="220" font-size="13" fill="#64748B" font-family="system-ui, -apple-system, sans-serif">夸张用语·虚假承诺·误导信息</text>
  <rect x="440" y="170" width="320" height="65" rx="12" fill="#FFFFFF" stroke="#CBD5E1" stroke-width="2"/>
  <circle cx="470" cy="202" r="14" fill="#F1F5F9" stroke="#94A3B8"/><text x="470" y="207" text-anchor="middle" font-size="14" fill="#64748B" font-weight="700">2</text>
  <text x="505" y="198" font-size="16" fill="#334155" font-family="system-ui, -apple-system, sans-serif" font-weight="700">图片素材合规</text>
  <text x="505" y="220" font-size="13" fill="#64748B" font-family="system-ui, -apple-system, sans-serif">主图白底·无水印·无侵权</text>
  <rect x="800" y="170" width="320" height="65" rx="12" fill="#FFFFFF" stroke="#CBD5E1" stroke-width="2"/>
  <circle cx="830" cy="202" r="14" fill="#F1F5F9" stroke="#94A3B8"/><text x="830" y="207" text-anchor="middle" font-size="14" fill="#64748B" font-weight="700">3</text>
  <text x="865" y="198" font-size="16" fill="#334155" font-family="system-ui, -apple-system, sans-serif" font-weight="700">索评方式</text>
  <text x="865" y="220" font-size="13" fill="#64748B" font-family="system-ui, -apple-system, sans-serif">合规索评·禁止诱导·禁止换卡</text>
  <rect x="80" y="260" width="320" height="65" rx="12" fill="#FFFFFF" stroke="#CBD5E1" stroke-width="2"/>
  <circle cx="110" cy="292" r="14" fill="#F1F5F9" stroke="#94A3B8"/><text x="110" y="297" text-anchor="middle" font-size="14" fill="#64748B" font-weight="700">4</text>
  <text x="145" y="288" font-size="16" fill="#334155" font-family="system-ui, -apple-system, sans-serif" font-weight="700">变体滥用</text>
  <text x="145" y="310" font-size="13" fill="#64748B" font-family="system-ui, -apple-system, sans-serif">品牌不一致·类目不匹配·重复 listing</text>
  <rect x="440" y="260" width="320" height="65" rx="12" fill="#FFFFFF" stroke="#CBD5E1" stroke-width="2"/>
  <circle cx="470" cy="292" r="14" fill="#F1F5F9" stroke="#94A3B8"/><text x="470" y="297" text-anchor="middle" font-size="14" fill="#64748B" font-weight="700">5</text>
  <text x="505" y="288" font-size="16" fill="#334155" font-family="system-ui, -apple-system, sans-serif" font-weight="700">AI 内容使用边界</text>
  <text x="505" y="310" font-size="13" fill="#64748B" font-family="system-ui, -apple-system, sans-serif">人工复核·防幻觉·防夸大</text>
  <rect x="800" y="260" width="320" height="65" rx="12" fill="#FFFFFF" stroke="#CBD5E1" stroke-width="2"/>
  <circle cx="830" cy="292" r="14" fill="#F1F5F9" stroke="#94A3B8"/><text x="830" y="297" text-anchor="middle" font-size="14" fill="#64748B" font-weight="700">6</text>
  <text x="865" y="288" font-size="16" fill="#334155" font-family="system-ui, -apple-system, sans-serif" font-weight="700">品牌 &amp; 备案</text>
  <text x="865" y="310" font-size="13" fill="#64748B" font-family="system-ui, -apple-system, sans-serif">品牌滥用·备案失败·授权问题</text>
  <!-- More items hint -->
  <rect x="80" y="365" width="1040" height="50" rx="14" fill="#F8FAFC" stroke="#CBD5E1" stroke-width="1.5"/>
  <text x="600" y="396" text-anchor="middle" font-size="15" fill="#64748B" font-family="system-ui, -apple-system, sans-serif" font-weight="700">还有 4 项：广告合规 · 分类审核 · 仓储物流 · 账号健康 → 全长检查清单 28 项</text>
  <!-- Bottom -->
  <rect x="340" y="450" width="520" height="56" rx="16" fill="#475569"/>
  <text x="600" y="486" text-anchor="middle" font-size="20" fill="#FFFFFF" font-family="system-ui, -apple-system, sans-serif" font-weight="700">发版前检查 → 运营中持续监控 → 安全运营</text>
</svg>