<svg xmlns="http://www.w3.org/2000/svg" width="1200" height="675" viewBox="0 0 1200 675">
  <defs>
    <linearGradient id="bg" x1="0" y1="0" x2="1" y2="1">
      <stop offset="0" stop-color="#020817"/>
      <stop offset="0.55" stop-color="#0B2B64"/>
      <stop offset="1" stop-color="#06152F"/>
    </linearGradient>
    <radialGradient id="glow" cx="60%" cy="42%" r="55%">
      <stop offset="0" stop-color="#38BDF8" stop-opacity="0.55"/>
      <stop offset="1" stop-color="#38BDF8" stop-opacity="0"/>
    </radialGradient>
  </defs>
  <rect width="1200" height="675" rx="36" fill="url(#bg)"/>
  <circle cx="720" cy="280" r="260" fill="url(#glow)"/>
  <g opacity="0.28" stroke="#93C5FD">
    <path d="M120 500 C310 330 480 510 650 310 C820 110 1000 210 1100 90" fill="none" stroke-width="3"/>
    <path d="M90 390 H1110M90 270 H1110M90 150 H1110" stroke-width="1"/>
    <path d="M260 90 V580M480 90 V580M700 90 V580M920 90 V580" stroke-width="1"/>
  </g>
  <g>
    <rect x="118" y="128" width="360" height="120" rx="24" fill="rgba(255,255,255,0.08)" stroke="rgba(147,197,253,0.32)"/>
    <text x="154" y="185" font-size="38" fill="#FFFFFF" font-family="Microsoft YaHei, Arial" font-weight="800">AI 运营亚马逊</text>
    <text x="154" y="222" font-size="22" fill="#BFDBFE" font-family="Microsoft YaHei, Arial">效率 · 判断 · SOP</text>
  </g>
  <g transform="translate(635 190)">
    <rect width="340" height="240" rx="30" fill="rgba(255,255,255,0.10)" stroke="rgba(147,197,253,0.38)"/>
    <text x="170" y="145" text-anchor="middle" font-size="88" fill="#EAF6FF" font-family="Arial" font-weight="900">AI</text>
    <text x="170" y="185" text-anchor="middle" font-size="23" fill="#BFDBFE" font-family="Microsoft YaHei, Arial">Seller Workflow</text>
  </g>
</svg>