<svg xmlns="http://www.w3.org/2000/svg" width="1200" height="675" viewBox="0 0 1200 675">
  <rect width="1200" height="675" rx="36" fill="#F7FAFF"/>
  <text x="72" y="82" font-size="42" fill="#06152F" font-family="Microsoft YaHei, Arial" font-weight="900">AI 在亚马逊运营中的 5 个应用场景</text>
  <text x="72" y="124" font-size="22" fill="#64748B" font-family="Microsoft YaHei, Arial">选品、Listing、广告、Review、日常复盘</text>
  <g transform="translate(76 200)">
    <rect width="190" height="210" rx="24" fill="#FFFFFF" stroke="#D9E7FF"/>
    <text x="95" y="92" text-anchor="middle" font-size="28" fill="#1368FF" font-family="Microsoft YaHei" font-weight="900">选品</text>
    <text x="95" y="134" text-anchor="middle" font-size="18" fill="#64748B" font-family="Microsoft YaHei">市场与风险</text>
  </g>
  <g transform="translate(292 200)">
    <rect width="190" height="210" rx="24" fill="#FFFFFF" stroke="#D9E7FF"/>
    <text x="95" y="92" text-anchor="middle" font-size="28" fill="#1368FF" font-family="Arial" font-weight="900">Listing</text>
    <text x="95" y="134" text-anchor="middle" font-size="18" fill="#64748B" font-family="Microsoft YaHei">转化表达</text>
  </g>
  <g transform="translate(508 200)">
    <rect width="190" height="210" rx="24" fill="#FFFFFF" stroke="#D9E7FF"/>
    <text x="95" y="92" text-anchor="middle" font-size="28" fill="#1368FF" font-family="Microsoft YaHei" font-weight="900">广告 PPC</text>
    <text x="95" y="134" text-anchor="middle" font-size="18" fill="#64748B" font-family="Microsoft YaHei">数据复盘</text>
  </g>
  <g transform="translate(724 200)">
    <rect width="190" height="210" rx="24" fill="#FFFFFF" stroke="#D9E7FF"/>
    <text x="95" y="92" text-anchor="middle" font-size="28" fill="#1368FF" font-family="Arial" font-weight="900">Review</text>
    <text x="95" y="134" text-anchor="middle" font-size="18" fill="#64748B" font-family="Microsoft YaHei">痛点洞察</text>
  </g>
  <g transform="translate(940 200)">
    <rect width="190" height="210" rx="24" fill="#FFFFFF" stroke="#D9E7FF"/>
    <text x="95" y="92" text-anchor="middle" font-size="28" fill="#1368FF" font-family="Microsoft YaHei" font-weight="900">SOP</text>
    <text x="95" y="134" text-anchor="middle" font-size="18" fill="#64748B" font-family="Microsoft YaHei">执行清单</text>
  </g>
  <path d="M266 305 H292M482 305 H508M698 305 H724M914 305 H940" stroke="#60A5FA" stroke-width="5" stroke-linecap="round"/>
</svg>